<svg width="324" height="324" viewBox="0 0 324 324" fill="none" xmlns="http://www.w3.org/2000/svg">
<ellipse opacity="0.1" cx="162" cy="314.28" rx="162" ry="9.72" fill="#C2C2C2"/>
<path fill-rule="evenodd" clip-rule="evenodd" d="M251.602 53.7658C251.674 49.052 255.554 45.2891 260.267 45.3611C264.981 45.4332 268.744 49.3129 268.672 54.0267L268.404 71.5849C268.332 76.2987 264.452 80.0616 259.738 79.9896C255.024 79.9175 251.262 76.0378 251.334 71.324L251.602 53.7658ZM260.168 51.8404C259.033 51.8231 258.098 52.7294 258.081 53.8648L257.813 71.423C257.795 72.5584 258.702 73.4929 259.837 73.5103C260.973 73.5276 261.907 72.6213 261.924 71.4859L262.193 53.9277C262.21 52.7923 261.304 51.8578 260.168 51.8404ZM269.637 89.2319C269.709 84.5181 273.589 80.7552 278.303 80.8272L295.861 81.0956C300.575 81.1676 304.337 85.0473 304.265 89.7611C304.193 94.4749 300.314 98.2378 295.6 98.1658L278.042 97.8974C273.328 97.8254 269.565 93.9457 269.637 89.2319ZM278.204 87.3065C277.068 87.2891 276.134 88.1955 276.116 89.3309C276.099 90.4663 277.005 91.4008 278.141 91.4182L295.699 91.6865C296.834 91.7039 297.769 90.7975 297.786 89.6621C297.803 88.5267 296.897 87.5922 295.762 87.5748L278.204 87.3065ZM71.9151 102.914C74.4873 92.882 83.5282 85.8669 93.8843 85.8669H239.837C250.193 85.8669 259.234 92.8821 261.807 102.914L277.551 164.318C278.312 167.285 278.464 170.374 277.998 173.4L268.852 232.854C267.149 243.918 257.629 252.086 246.435 252.086H110.034C103.263 268.62 87.0117 280.267 68.0397 280.267C42.988 280.267 22.6797 259.959 22.6797 234.907C22.6797 213.232 37.8822 195.108 58.206 190.616L55.6783 173.303C55.2444 170.331 55.4051 167.303 56.1511 164.394L71.9151 102.914ZM64.6172 189.674C65.747 189.59 66.8883 189.547 68.0397 189.547C93.0913 189.547 113.4 209.856 113.4 234.907C113.4 238.593 112.96 242.175 112.131 245.605H246.435C254.431 245.605 261.231 239.772 262.447 231.869L271.594 172.415L271.612 172.29L271.623 172.214H223.308L209.613 191.388C205.356 197.348 198.482 200.885 191.157 200.885H144.608C137.284 200.885 130.41 197.348 126.153 191.388L112.457 172.214H62.0687L62.0903 172.367L64.6172 189.674ZM255.53 104.523L271.225 165.734H249.967V163.689V163.504V146.448V143.026V122.545C249.967 113.598 242.714 106.345 233.767 106.345H99.9492C91.0022 106.345 83.7492 113.598 83.7492 122.545V143.026V146.448V163.504V163.689V165.734H62.4969L78.192 104.523C80.0293 97.3577 86.4871 92.3469 93.8843 92.3469H239.837C247.235 92.3469 253.692 97.3577 255.53 104.523ZM243.487 130.065C240.78 128.031 237.414 126.826 233.767 126.826H99.9492C96.3022 126.826 92.9368 128.031 90.2292 130.065V122.545C90.2292 117.177 94.581 112.825 99.9492 112.825H233.767C239.135 112.825 243.487 117.177 243.487 122.545V130.065ZM90.2292 165.734H114.125C115.171 165.734 116.153 166.24 116.761 167.091L131.426 187.621C134.467 191.879 139.376 194.405 144.608 194.405H191.157C196.389 194.405 201.299 191.879 204.34 187.621L219.004 167.091C219.612 166.24 220.594 165.734 221.641 165.734H243.487V163.995L242.835 160.586C242.753 160.153 242.653 159.727 242.538 159.309C240.972 156.041 237.633 153.784 233.767 153.784H99.9492C95.477 153.784 91.7103 156.804 90.5774 160.916C90.5234 161.235 90.4787 161.558 90.4434 161.884L90.2292 163.863V165.734ZM29.1597 234.907C29.1597 213.434 46.5668 196.027 68.0397 196.027C89.5125 196.027 106.92 213.434 106.92 234.907C106.92 256.38 89.5125 273.787 68.0397 273.787C46.5668 273.787 29.1597 256.38 29.1597 234.907ZM59.9397 213.847C59.9397 209.374 63.5662 205.747 68.0397 205.747C72.5132 205.747 76.1396 209.374 76.1396 213.847V233.287C76.1396 237.761 72.5132 241.387 68.0397 241.387C63.5662 241.387 59.9397 237.761 59.9397 233.287V213.847ZM68.0397 212.227C67.145 212.227 66.4197 212.953 66.4197 213.847V233.287C66.4197 234.182 67.145 234.907 68.0397 234.907C68.9344 234.907 69.6597 234.182 69.6597 233.287V213.847C69.6597 212.953 68.9344 212.227 68.0397 212.227ZM68.0397 264.067C63.5662 264.067 59.9397 260.441 59.9397 255.967C59.9397 251.494 63.5662 247.867 68.0397 247.867C72.5132 247.867 76.1396 251.494 76.1396 255.967C76.1396 260.441 72.5132 264.067 68.0397 264.067ZM66.4197 255.967C66.4197 256.862 67.145 257.587 68.0397 257.587C68.9344 257.587 69.6597 256.862 69.6597 255.967C69.6597 255.073 68.9344 254.347 68.0397 254.347C67.145 254.347 66.4197 255.073 66.4197 255.967Z" fill="#686868"/>
</svg>
