<svg width="231" height="273" viewBox="0 0 231 273" fill="none" xmlns="http://www.w3.org/2000/svg">
<path fill-rule="evenodd" clip-rule="evenodd" d="M170.794 213.496C204.947 194.184 228 157.534 228 115.5C228 53.368 177.632 3 115.5 3C53.368 3 3 53.368 3 115.5C3 157.701 26.2362 194.475 60.6125 213.725L80.1929 165.862C64.3528 154.736 54 136.327 54 115.5C54 81.5345 81.5345 54 115.5 54C149.466 54 177 81.5345 177 115.5C177 136.157 166.816 154.435 151.195 165.587L170.794 213.496Z" fill="#EA580C"/>
<path d="M170.794 213.496L168.48 214.443L169.554 217.069L172.024 215.672L170.794 213.496ZM60.6125 213.725L59.391 215.906L61.8565 217.287L62.9264 214.672L60.6125 213.725ZM80.1929 165.862L82.5068 166.808L83.262 164.962L81.6298 163.816L80.1929 165.862ZM151.195 165.587L149.742 163.553L148.132 164.702L148.881 166.534L151.195 165.587ZM225.5 115.5C225.5 156.597 202.964 192.434 169.563 211.32L172.024 215.672C206.93 195.935 230.5 158.472 230.5 115.5H225.5ZM115.5 5.5C176.251 5.5 225.5 54.7487 225.5 115.5H230.5C230.5 51.9873 179.013 0.5 115.5 0.5V5.5ZM5.5 115.5C5.5 54.7487 54.7487 5.5 115.5 5.5V0.5C51.9873 0.5 0.5 51.9873 0.5 115.5H5.5ZM61.834 211.544C28.2152 192.717 5.5 156.76 5.5 115.5H0.5C0.5 158.642 24.2573 196.232 59.391 215.906L61.834 211.544ZM77.8791 164.915L58.2986 212.778L62.9264 214.672L82.5068 166.808L77.8791 164.915ZM51.5 115.5C51.5 137.176 62.2781 156.334 78.756 167.908L81.6298 163.816C66.4275 153.138 56.5 135.478 56.5 115.5H51.5ZM115.5 51.5C80.1538 51.5 51.5 80.1538 51.5 115.5H56.5C56.5 82.9152 82.9152 56.5 115.5 56.5V51.5ZM179.5 115.5C179.5 80.1538 150.846 51.5 115.5 51.5V56.5C148.085 56.5 174.5 82.9152 174.5 115.5H179.5ZM152.647 167.622C168.898 156.02 179.5 136.998 179.5 115.5H174.5C174.5 135.315 164.734 152.849 149.742 163.553L152.647 167.622ZM173.108 212.55L153.509 164.641L148.881 166.534L168.48 214.443L173.108 212.55Z" fill="#C1490B"/>
<path fill-rule="evenodd" clip-rule="evenodd" d="M149 115.5C149 130.366 139.317 142.97 125.914 147.35L153 233L116 269L79 233L105.996 147.633C92.1237 143.536 82 130.7 82 115.5C82 96.9985 96.9985 82 115.5 82C134.002 82 149 96.9985 149 115.5Z" fill="#EA580C"/>
<path d="M125.914 147.35L125.138 144.973L122.784 145.743L123.53 148.104L125.914 147.35ZM153 233L154.743 234.792L155.849 233.716L155.384 232.246L153 233ZM116 269L114.257 270.792L116 272.488L117.743 270.792L116 269ZM79 233L76.6164 232.246L76.1514 233.716L77.2566 234.792L79 233ZM105.996 147.633L108.38 148.387L109.148 145.957L106.704 145.235L105.996 147.633ZM126.691 149.726C141.091 145.02 151.5 131.479 151.5 115.5H146.5C146.5 129.253 137.543 140.92 125.138 144.973L126.691 149.726ZM155.384 232.246L128.298 146.596L123.53 148.104L150.616 233.754L155.384 232.246ZM117.743 270.792L154.743 234.792L151.257 231.208L114.257 267.208L117.743 270.792ZM77.2566 234.792L114.257 270.792L117.743 267.208L80.7434 231.208L77.2566 234.792ZM103.613 146.879L76.6164 232.246L81.3836 233.754L108.38 148.387L103.613 146.879ZM79.5 115.5C79.5 131.838 90.3821 145.629 105.288 150.03L106.704 145.235C93.8653 141.444 84.5 129.562 84.5 115.5H79.5ZM115.5 79.5C95.6177 79.5 79.5 95.6177 79.5 115.5H84.5C84.5 98.3792 98.3792 84.5 115.5 84.5V79.5ZM151.5 115.5C151.5 95.6177 135.382 79.5 115.5 79.5V84.5C132.621 84.5 146.5 98.3792 146.5 115.5H151.5Z" fill="#C1490B"/>
</svg>
